<?xml version="1.0" encoding="UTF-8"?>
<svg id="Layer_1" xmlns="http://www.w3.org/2000/svg" version="1.1" xmlns:xlink="http://www.w3.org/1999/xlink" viewBox="0 0 2220.31 629.16">
  <!-- Generator: Adobe Illustrator 29.8.2, SVG Export Plug-In . SVG Version: 2.1.1 Build 3)  -->
  <defs>
    <style>
      .st0 {
        fill: url(#linear-gradient1);
      }

      .st1 {
        fill: url(#linear-gradient);
      }

      .st2 {
        fill: #1c4276;
      }
    </style>
    <linearGradient id="linear-gradient" x1="326.05" y1="276.45" x2="93.98" y2="276.45" gradientUnits="userSpaceOnUse">
      <stop offset="0" stop-color="#c3dc84"/>
      <stop offset=".62" stop-color="#66bad5"/>
      <stop offset="1" stop-color="#2c407d"/>
    </linearGradient>
    <linearGradient id="linear-gradient1" x1="212.04" y1="352.71" x2="458.34" y2="352.71" xlink:href="#linear-gradient"/>
  </defs>
  <path class="st1" d="M107.21,111.57h210.83c3.14,0,5.68,2.41,5.68,5.38v16.02c0,2.97-2.54,5.38-5.68,5.38h-186.69c-3.14,0-5.68,2.41-5.68,5.38v108.39c0,2.97,2.54,5.38,5.68,5.38h174.11c3.14,0,5.68,2.41,5.68,5.38v16.02c0,2.97-2.54,5.38-5.68,5.38h-174.11c-3.14,0-5.68,2.41-5.68,5.38v119.48c0,2.97,2.54,5.38,5.68,5.38h189.02c3.14,0,5.68,2.41,5.68,5.38v16.02c0,2.97-2.54,5.38-5.68,5.38H111.57c-9.71,0-17.59-7.46-17.59-16.66V124.11c0-6.92,5.92-12.53,13.23-12.53Z"/>
  <path class="st0" d="M391.69,343.47v-.92c32.66-7.39,54.73-39.26,54.73-73.89,0-61.43-48.11-80.82-101.08-80.82h-125.44c-4.35,0-7.87,3.52-7.87,7.87v43.3h30.01v-24.39h103.29c47.23,0,71.07,20.78,71.07,61.89,0,30.94-23.39,55.88-71.07,55.88h-103.29v-30.94h-30.01v91.56h30.01v-33.83h103.29c52.97,0,82.98,21.25,82.98,63.74,0,53.57-38.4,67.89-82.98,67.89h-103.29v-35.35h-30.01v54.23c0,4.37,3.54,7.91,7.91,7.91h125.39c102.41,0,113-62.35,113-93.75,0-42.95-26.04-74.82-66.65-80.36Z"/>
  <g>
    <path class="st2" d="M531,198.01h80.17v20.93h-56.6v24.26h51.95v19.35h-51.95v27.75h57.8v20.93h-81.37v-113.23Z"/>
    <path class="st2" d="M620.63,229.25h20.27v11.42h.45c5.41-9.36,14.71-13.64,23.72-13.64,22.67,0,28.37,13.48,28.37,33.78v50.43h-21.32v-46.31c0-13.48-3.6-20.14-13.66-20.14-11.56,0-16.51,6.82-16.51,23.47v42.98h-21.32v-81.99Z"/>
    <path class="st2" d="M747.19,311.24h-23.72l-26.57-81.99h22.37l16.36,55.98h.3l16.36-55.98h21.17l-26.27,81.99Z"/>
    <path class="st2" d="M798.84,216.57h-21.32v-18.56h21.32v18.56ZM777.52,229.25h21.32v81.99h-21.32v-81.99Z"/>
    <path class="st2" d="M826.76,284.6c0,9.67,8.11,13.8,16.36,13.8,6.01,0,13.96-2.54,13.96-10.47,0-6.82-9.01-9.36-24.17-12.69-12.46-3.01-24.62-7.29-24.62-21.89,0-20.93,17.11-26.33,33.78-26.33s32.58,6.03,34.23,26.17h-20.27c-.6-8.72-6.91-11.1-14.56-11.1-4.8,0-11.86.79-11.86,7.61,0,8.09,12.16,9.2,24.17,12.21,12.46,3.01,24.62,7.77,24.62,23,0,21.57-17.87,28.55-35.43,28.55s-35.73-7.14-36.48-28.86h20.27Z"/>
    <path class="st2" d="M907.39,216.57h-21.32v-18.56h21.32v18.56ZM886.07,229.25h21.32v81.99h-21.32v-81.99Z"/>
    <path class="st2" d="M956.48,227.03c24.47,0,40.24,17.13,40.24,43.3s-15.76,43.14-40.24,43.14-40.09-17.13-40.09-43.14,15.76-43.3,40.09-43.3ZM956.48,296.5c14.56,0,18.92-13,18.92-26.17s-4.35-26.33-18.92-26.33-18.77,13.16-18.77,26.33,4.35,26.17,18.77,26.17Z"/>
    <path class="st2" d="M1005.12,229.25h20.27v11.42h.45c5.41-9.36,14.71-13.64,23.72-13.64,22.67,0,28.38,13.48,28.38,33.78v50.43h-21.32v-46.31c0-13.48-3.6-20.14-13.66-20.14-11.56,0-16.51,6.82-16.51,23.47v42.98h-21.32v-81.99Z"/>
    <path class="st2" d="M1127.33,198.01h50.44c20.42,0,34.23,6.98,34.23,28.07,0,11.26-5.1,18.71-14.56,23.63,13.21,3.96,19.67,14.59,19.67,28.7,0,23-18.47,32.83-37.83,32.83h-51.95v-113.23ZM1150.91,243.84h23.87c8.41,0,14.41-3.96,14.41-13.48,0-10.63-7.81-13-16.22-13h-22.07v26.49ZM1150.91,291.9h25.22c9.16,0,17.42-3.17,17.42-14.91s-6.76-16.18-16.96-16.18h-25.67v31.08Z"/>
    <path class="st2" d="M1242.94,275.72c.6,14.43,7.05,20.78,19.07,20.78,8.56,0,15.46-5.55,16.81-10.63h18.77c-6.01,19.51-18.77,27.59-36.33,27.59-24.47,0-39.64-17.76-39.64-43.14s16.07-43.3,39.64-43.3c26.42,0,39.34,23.47,37.68,48.69h-56ZM1277.62,261.45c-1.95-11.42-6.61-17.45-16.96-17.45-13.81,0-17.27,11.1-17.72,17.45h34.68Z"/>
    <path class="st2" d="M1306.15,229.25h20.27v11.42h.45c5.4-9.36,14.71-13.64,23.72-13.64,22.67,0,28.37,13.48,28.37,33.78v50.43h-21.32v-46.31c0-13.48-3.6-20.14-13.66-20.14-11.56,0-16.52,6.82-16.52,23.47v42.98h-21.32v-81.99Z"/>
    <path class="st2" d="M1407.34,275.72c.6,14.43,7.05,20.78,19.07,20.78,8.56,0,15.46-5.55,16.81-10.63h18.77c-6.01,19.51-18.77,27.59-36.33,27.59-24.47,0-39.64-17.76-39.64-43.14s16.07-43.3,39.64-43.3c26.42,0,39.34,23.47,37.68,48.69h-56ZM1442.02,261.45c-1.95-11.42-6.61-17.45-16.96-17.45-13.81,0-17.27,11.1-17.72,17.45h34.68Z"/>
    <path class="st2" d="M1475.2,244.32h-12.76v-15.07h12.76v-6.34c0-14.59,8.56-24.9,25.97-24.9,3.75,0,7.66.48,11.26.63v16.81c-2.55-.32-5.26-.47-7.81-.47-5.85,0-8.11,2.54-8.11,9.36v4.92h14.71v15.07h-14.71v66.93h-21.32v-66.93ZM1545.46,216.57h-21.32v-18.56h21.32v18.56ZM1524.14,229.25h21.32v81.99h-21.32v-81.99Z"/>
    <path class="st2" d="M1583.9,229.25h15.61v15.07h-15.61v40.6c0,7.61,1.8,9.52,9.01,9.52,2.4,0,4.65-.16,6.61-.63v17.6c-3.6.63-8.26.79-12.46.79-13.21,0-24.47-3.01-24.47-19.51v-48.37h-12.91v-15.07h12.91v-24.58h21.32v24.58Z"/>
    <path class="st2" d="M1620.83,284.6c0,9.67,8.11,13.8,16.37,13.8,6.01,0,13.96-2.54,13.96-10.47,0-6.82-9.01-9.36-24.17-12.69-12.46-3.01-24.62-7.29-24.62-21.89,0-20.93,17.12-26.33,33.78-26.33s32.58,6.03,34.23,26.17h-20.27c-.6-8.72-6.91-11.1-14.56-11.1-4.8,0-11.86.79-11.86,7.61,0,8.09,12.16,9.2,24.17,12.21,12.46,3.01,24.62,7.77,24.62,23,0,21.57-17.87,28.55-35.43,28.55s-35.73-7.14-36.48-28.86h20.27Z"/>
    <path class="st2" d="M1795.58,298.4c-8.41,11.42-19.07,15.54-29.43,15.54-33.03,0-52.7-26.17-52.7-58.84s19.67-59.79,52.7-59.79c21.92,0,42.79,14.11,45.19,39.97h-22.52c-2.85-12.69-11.41-19.03-22.67-19.03-21.17,0-29.13,19.03-29.13,38.86s7.96,37.9,29.13,37.9c15.46,0,24.17-8.56,25.52-24.42h-23.72v-18.55h45.04v61.22h-15.01l-2.4-12.85Z"/>
    <path class="st2" d="M1824.41,229.25h20.27v15.22h.3c4.05-10.31,14.11-17.44,24.77-17.44,1.65,0,3.15.32,4.66.79v20.93c-1.95-.48-5.1-.79-7.66-.79-15.77,0-21.02,11.74-21.02,26.33v36.95h-21.32v-81.99Z"/>
    <path class="st2" d="M1915.09,227.03c24.47,0,40.24,17.13,40.24,43.3s-15.76,43.14-40.24,43.14-40.08-17.13-40.08-43.14,15.76-43.3,40.08-43.3ZM1915.09,296.5c14.56,0,18.92-13,18.92-26.17s-4.35-26.33-18.92-26.33-18.77,13.16-18.77,26.33,4.35,26.17,18.77,26.17Z"/>
    <path class="st2" d="M2036.55,311.24h-20.27v-11.42h-.45c-5.4,9.36-14.71,13.64-23.72,13.64-22.67,0-28.37-13.48-28.37-33.78v-50.43h21.32v46.31c0,13.48,3.6,20.14,13.66,20.14,11.56,0,16.52-6.82,16.52-23.47v-42.98h21.32v81.99Z"/>
    <path class="st2" d="M2047.36,229.25h20.27v10.47h.3c5.26-8.88,13.51-12.69,23.12-12.69,24.32,0,35.28,20.77,35.28,44.09,0,21.89-11.26,42.34-34.08,42.34-9.46,0-18.02-4.28-23.27-12.37h-.3v39.01h-21.32v-110.86ZM2105.01,270.49c0-13.16-4.96-26.48-18.62-26.48s-18.47,13.16-18.47,26.48,4.8,26.01,18.62,26.01,18.47-12.69,18.47-26.01Z"/>
  </g>
  <g>
    <path class="st2" d="M552.85,354.39h43.87v5.45h-37.82v24.26h35.42v5.45h-35.42v26.51h38.27v5.45h-44.32v-67.14Z"/>
    <path class="st2" d="M601.35,373h5.16v8.18h.27c2.94-5.93,7.65-9.59,15.04-9.59,6.05,0,11.48,3.1,13.17,9.5,2.76-6.39,8.54-9.5,14.6-9.5,10.15,0,15.22,5.64,15.22,17.02v32.91h-5.61v-32.63c0-7.99-2.76-12.32-10.86-12.32-9.7,0-12.46,8.46-12.46,17.49v27.46h-5.61v-32.91c0-6.58-2.4-12.04-9.61-12.04-9.61,0-13.71,7.71-13.71,17.87v27.08h-5.61v-48.52Z"/>
    <path class="st2" d="M672.29,373h5.16v9.22h.18c2.58-6.68,8.9-10.63,16.38-10.63,13.97,0,20.65,11.85,20.65,25.67s-6.67,25.67-20.65,25.67c-6.76,0-13.53-3.57-15.93-10.62h-.18v27.17h-5.61v-66.48ZM694,376.58c-12.46,0-16.11,9.68-16.11,20.69,0,10.06,4.27,20.69,16.11,20.69,10.68,0,15.04-10.63,15.04-20.69s-4.36-20.69-15.04-20.69Z"/>
    <path class="st2" d="M720.26,354.39h5.61v67.14h-5.61v-67.14Z"/>
    <path class="st2" d="M774.55,397.26c0,13.92-7.74,25.67-21.71,25.67s-21.72-11.75-21.72-25.67,7.74-25.67,21.72-25.67,21.71,11.75,21.71,25.67ZM736.72,397.26c0,10.25,5.43,20.69,16.11,20.69s16.11-10.44,16.11-20.69-5.43-20.69-16.11-20.69-16.11,10.44-16.11,20.69Z"/>
    <path class="st2" d="M774.55,373h5.96l15.13,41.37,14.15-41.37h5.61l-19.94,55.95c-3.29,8.18-5.07,10.53-12.1,10.53-2.22-.09-3.29-.09-4.27-.47v-4.98c1.33.28,2.49.47,3.83.47,4.99,0,6.14-3.1,8.01-7.62l1.96-5.55-18.33-48.33Z"/>
    <path class="st2" d="M821.01,398.86c0,8.65,4.45,19.09,15.13,19.09,8.19,0,12.64-4.98,14.42-12.41h5.61c-2.4,11-8.36,17.4-20.02,17.4-14.6,0-20.74-11.85-20.74-25.67,0-12.79,6.14-25.67,20.74-25.67s20.65,13.64,20.2,27.27h-35.33ZM850.73,393.88c-.27-8.93-5.61-17.3-14.6-17.3s-14.15,8.46-15.13,17.3h29.73Z"/>
    <path class="st2" d="M863.99,398.86c0,8.65,4.45,19.09,15.13,19.09,8.19,0,12.64-4.98,14.42-12.41h5.61c-2.4,11-8.36,17.4-20.02,17.4-14.6,0-20.74-11.85-20.74-25.67,0-12.79,6.14-25.67,20.74-25.67s20.65,13.64,20.2,27.27h-35.33ZM893.72,393.88c-.27-8.93-5.61-17.3-14.6-17.3s-14.15,8.46-15.13,17.3h29.73Z"/>
    <path class="st2" d="M926.3,354.39h26.88c10.68,0,20.38,3.95,20.38,16.46,0,7.05-4.45,13.54-11.04,15.04v.19c8.19,1.13,13.44,7.62,13.44,16.36,0,6.39-2.14,19.09-22.78,19.09h-26.88v-67.14ZM932.35,383.82h20.83c9.61,0,14.33-5.08,14.33-11.38,0-8.37-4.81-12.6-14.33-12.6h-20.83v23.98ZM932.35,416.07h20.83c8.99,0,16.73-2.91,16.73-13.82,0-8.65-6.05-12.98-16.73-12.98h-20.83v26.8Z"/>
    <path class="st2" d="M984.68,398.86c0,8.65,4.45,19.09,15.13,19.09,8.19,0,12.64-4.98,14.42-12.41h5.61c-2.4,11-8.36,17.4-20.02,17.4-14.6,0-20.74-11.85-20.74-25.67,0-12.79,6.14-25.67,20.74-25.67s20.65,13.64,20.2,27.27h-35.33ZM1014.4,393.88c-.27-8.93-5.61-17.3-14.6-17.3s-14.15,8.46-15.13,17.3h29.73Z"/>
    <path class="st2" d="M1024.28,373h5.61v8.37h.18c2.14-5.83,8.19-9.78,14.68-9.78,12.91,0,16.82,7.15,16.82,18.71v31.22h-5.61v-30.28c0-8.28-2.58-14.67-11.66-14.67s-14.15,7.15-14.42,16.64v28.3h-5.61v-48.52Z"/>
    <path class="st2" d="M1072.25,398.86c0,8.65,4.45,19.09,15.13,19.09,8.19,0,12.64-4.98,14.42-12.41h5.61c-2.4,11-8.37,17.4-20.03,17.4-14.59,0-20.74-11.85-20.74-25.67,0-12.79,6.14-25.67,20.74-25.67s20.65,13.64,20.2,27.27h-35.33ZM1101.98,393.88c-.27-8.93-5.61-17.3-14.6-17.3s-14.15,8.46-15.13,17.3h29.73Z"/>
    <path class="st2" d="M1114.98,377.99h-7.83v-4.98h7.83v-4.42c0-8.37,2.05-14.2,11.12-14.2,1.69,0,2.94.09,4.72.38v5.08c-1.51-.28-2.76-.47-4.1-.47-6.14,0-6.14,4.23-6.14,9.4v4.23h9.08v4.98h-9.08v43.54h-5.61v-43.54ZM1135.09,354.39h5.61v9.5h-5.61v-9.5ZM1135.09,373h5.61v48.52h-5.61v-48.52Z"/>
    <path class="st2" d="M1157.16,373h9.34v4.98h-9.34v32.72c0,3.86.53,6.11,4.54,6.39,1.6,0,3.2-.09,4.81-.28v5.08c-1.69,0-3.29.19-4.98.19-7.48,0-10.06-2.63-9.97-10.91v-33.19h-8.01v-4.98h8.01v-14.57h5.61v14.57Z"/>
    <path class="st2" d="M1198.9,387.2c-.27-7.33-5.61-10.63-12.02-10.63-4.98,0-10.86,2.07-10.86,8.37,0,5.17,5.61,7.15,9.52,8.18l7.48,1.79c6.41,1.03,13.08,4.98,13.08,13.44,0,10.53-9.88,14.58-18.42,14.58-10.77,0-17.89-5.17-18.87-17.11h5.61c.44,7.99,6.05,12.13,13.53,12.13,5.34,0,12.55-2.45,12.55-9.22,0-5.64-4.99-7.52-10.06-8.84l-7.21-1.69c-7.3-1.97-12.81-4.8-12.81-12.98,0-9.87,9.17-13.64,17.26-13.64,9.26,0,16.38,5.08,16.82,15.61h-5.61Z"/>
    <path class="st2" d="M1221.78,411.56v10.06c0,5.45-2.58,11.28-7.83,12.79v-4.04c2.85-1.03,4.36-5.93,4.09-8.84h-3.74v-9.97h7.48Z"/>
    <path class="st2" d="M1255.15,354.39h28.21c11.39,0,18.87,7.05,18.87,19.18s-7.48,19.18-18.87,19.18h-22.16v28.77h-6.05v-67.14ZM1261.2,387.3h20.83c8.46,0,14.15-4.42,14.15-13.73s-5.7-13.73-14.15-13.73h-20.83v27.45Z"/>
    <path class="st2" d="M1306.41,387.86c.62-11.38,8.01-16.27,18.6-16.27,8.1,0,16.91,2.54,16.91,15.61v25.76c0,2.35,1.07,3.57,3.29,3.57.62,0,1.16-.09,1.78-.38v4.98c-1.34.28-2.14.38-3.65.38-5.7,0-6.59-3.48-6.59-8.46h-.18c-4.01,6.3-7.83,9.87-16.73,9.87s-15.4-4.42-15.4-14.2c0-13.54,12.55-14.1,24.65-15.61,4.63-.47,7.21-1.32,7.21-6.58,0-7.99-5.34-9.97-12.01-9.97-7.03,0-12.02,3.39-12.28,11.29h-5.61ZM1336.32,395.01h-.18c-.71,1.41-3.2,1.88-4.72,2.16-9.52,1.79-21.36,1.79-21.36,11.19,0,5.93,4.89,9.59,10.23,9.59,8.63,0,16.02-5.74,16.02-15.23v-7.71Z"/>
    <path class="st2" d="M1344.77,373h5.96l15.13,41.37,14.15-41.37h5.61l-19.94,55.95c-3.29,8.18-5.07,10.53-12.1,10.53-2.22-.09-3.29-.09-4.27-.47v-4.98c1.33.28,2.49.47,3.83.47,4.98,0,6.14-3.1,8.01-7.62l1.96-5.55-18.34-48.33Z"/>
    <path class="st2" d="M1387.94,373h5.16v11.38h.18c2.85-7.9,9.08-12.41,17.36-12.04v5.92c-10.15-.47-17.09,7.24-17.09,17.4v25.86h-5.61v-48.52Z"/>
    <path class="st2" d="M1452.28,397.26c0,13.92-7.74,25.67-21.71,25.67s-21.72-11.75-21.72-25.67,7.74-25.67,21.72-25.67,21.71,11.75,21.71,25.67ZM1414.46,397.26c0,10.25,5.43,20.69,16.11,20.69s16.11-10.44,16.11-20.69-5.43-20.69-16.11-20.69-16.11,10.44-16.11,20.69Z"/>
    <path class="st2" d="M1457.54,354.39h5.61v67.14h-5.61v-67.14Z"/>
    <path class="st2" d="M1470.8,354.39h5.61v67.14h-5.61v-67.14Z"/>
    <path class="st2" d="M1494.74,411.56v10.06c0,5.45-2.58,11.28-7.83,12.79v-4.04c2.85-1.03,4.36-5.93,4.09-8.84h-3.74v-9.97h7.48Z"/>
    <path class="st2" d="M1563.09,412.78c-4.63,6.11-11.21,10.16-18.69,10.16-10.95,0-19.22-6.68-19.22-18.81,0-9.5,8.45-15.89,15.57-19.93-3.47-4.7-7.83-9.68-7.83-16.17,0-8.18,6.32-13.63,14.06-13.63s14.06,5.45,14.06,13.63-6.14,13.16-12.46,17.4l13.88,17.68c1.51-3.29,1.87-6.11,1.87-11.28h5.61c0,3.76-.8,10.34-3.74,16.08l10.68,13.63h-7.03l-6.76-8.75ZM1543.78,388.05c-6.14,3.48-12.99,8.56-12.99,16.64s6.68,13.26,13.79,13.26c6.41,0,11.48-4.23,15.04-9.59l-15.84-20.31ZM1538.53,368.02c0,4.7,4.27,9.97,7.12,13.54,4.45-3.01,9.79-6.96,9.79-13.54,0-5.64-3.83-8.65-8.46-8.65s-8.46,3.01-8.46,8.65Z"/>
    <path class="st2" d="M1600.83,354.39h6.05v29.15h37.73v-29.15h6.05v67.14h-6.05v-32.53h-37.73v32.53h-6.05v-67.14Z"/>
    <path class="st2" d="M1660.28,354.39h29.1c10.41,0,19.31,5.36,19.31,17.49,0,8.56-4.18,15.33-12.37,17.11v.19c8.28,1.22,10.68,7.05,11.13,15.14.27,4.61.27,13.92,2.94,17.21h-6.68c-1.42-2.54-1.42-7.62-1.69-10.44-.44-9.4-1.33-19.84-12.73-19.37h-22.96v29.81h-6.05v-67.14ZM1666.34,386.26h22.6c7.39,0,13.71-4.89,13.71-13.07s-4.54-13.35-13.71-13.35h-22.6v26.42Z"/>
    <path class="st2" d="M1784.44,374.7c-2.14-10.34-10.23-16.27-19.49-16.27-16.82,0-23.94,14.86-23.94,29.52s7.12,29.53,23.94,29.53c11.75,0,19.22-9.59,20.38-21.53h6.05c-1.69,16.55-11.57,26.99-26.43,26.99-20.02,0-29.99-16.55-29.99-34.98s9.97-34.98,29.99-34.98c12.1,0,23.85,7.71,25.54,21.72h-6.05Z"/>
    <path class="st2" d="M1837.48,397.26c0,13.92-7.74,25.67-21.71,25.67s-21.72-11.75-21.72-25.67,7.74-25.67,21.72-25.67,21.71,11.75,21.71,25.67ZM1799.66,397.26c0,10.25,5.43,20.69,16.11,20.69s16.11-10.44,16.11-20.69-5.43-20.69-16.11-20.69-16.11,10.44-16.11,20.69Z"/>
    <path class="st2" d="M1842.56,373h5.61v8.37h.18c2.14-5.83,8.19-9.78,14.68-9.78,12.91,0,16.82,7.15,16.82,18.71v31.22h-5.61v-30.28c0-8.28-2.58-14.67-11.66-14.67s-14.15,7.15-14.42,16.64v28.3h-5.61v-48.52Z"/>
    <path class="st2" d="M1914.74,387.2c-.27-7.33-5.61-10.63-12.02-10.63-4.98,0-10.86,2.07-10.86,8.37,0,5.17,5.61,7.15,9.52,8.18l7.48,1.79c6.41,1.03,13.08,4.98,13.08,13.44,0,10.53-9.88,14.58-18.42,14.58-10.77,0-17.89-5.17-18.87-17.11h5.61c.44,7.99,6.05,12.13,13.53,12.13,5.34,0,12.55-2.45,12.55-9.22,0-5.64-4.99-7.52-10.06-8.84l-7.21-1.69c-7.3-1.97-12.81-4.8-12.81-12.98,0-9.87,9.17-13.64,17.26-13.64,9.26,0,16.38,5.08,16.82,15.61h-5.61Z"/>
    <path class="st2" d="M1964.04,421.52h-5.16v-8.75h-.18c-2.94,6.49-8.99,10.16-15.84,10.16-11.66,0-16.11-7.05-16.11-18.43v-31.5h5.61v31.59c.27,8.74,3.38,13.35,12.28,13.35,9.61,0,13.79-9.59,13.79-19.46v-25.48h5.61v48.52Z"/>
    <path class="st2" d="M1971.52,354.39h5.61v67.14h-5.61v-67.14Z"/>
    <path class="st2" d="M1993.59,373h9.34v4.98h-9.34v32.72c0,3.86.53,6.11,4.54,6.39,1.6,0,3.2-.09,4.81-.28v5.08c-1.69,0-3.29.19-4.98.19-7.48,0-10.06-2.63-9.97-10.91v-33.19h-8.01v-4.98h8.01v-14.57h5.61v14.57Z"/>
    <path class="st2" d="M2007.92,354.39h5.61v9.5h-5.61v-9.5ZM2007.92,373h5.61v48.52h-5.61v-48.52Z"/>
    <path class="st2" d="M2021,373h5.61v8.37h.18c2.14-5.83,8.19-9.78,14.68-9.78,12.91,0,16.82,7.15,16.82,18.71v31.22h-5.61v-30.28c0-8.28-2.58-14.67-11.66-14.67s-14.15,7.15-14.42,16.64v28.3h-5.61v-48.52Z"/>
    <path class="st2" d="M2104.48,417.57c0,14.57-5.52,23.32-20.38,23.32-9.17,0-18.33-4.42-19.04-14.67h5.61c1.16,7.15,7.3,9.68,13.44,9.68,10.41,0,14.78-6.39,14.78-18.34v-6.58h-.18c-2.58,6.02-7.92,9.97-14.6,9.97-14.68,0-20.74-11-20.74-24.92s7.48-24.45,20.74-24.45c6.76,0,12.37,4.42,14.6,9.78h.18v-8.37h5.61v44.57ZM2098.88,396.7c0-9.5-4.09-20.12-14.78-20.12s-15.13,10.06-15.13,20.12,4.72,19.28,15.13,19.28c9.7,0,14.78-9.5,14.78-19.28Z"/>
  </g>
</svg>