<?xml version="1.0" encoding="UTF-8"?>
<svg id="Layer_1" xmlns="http://www.w3.org/2000/svg" version="1.1" viewBox="0 0 547.54 379.51">
  <!-- Generator: Adobe Illustrator 30.1.0, SVG Export Plug-In . SVG Version: 2.1.1 Build 136)  -->
  <defs>
    <style>
      .st0 {
        fill: #fff;
      }
    </style>
  </defs>
  <g>
    <ellipse class="st0" cx="442.05" cy="190.49" rx="19.11" ry="19.11" transform="translate(-39.02 174.07) rotate(-21.36)"/>
    <ellipse class="st0" cx="404.23" cy="37.94" rx="19.09" ry="19.09" transform="translate(266.35 419.82) rotate(-75.51)"/>
    <ellipse class="st0" cx="134" cy="229.94" rx="16.21" ry="16.2" transform="translate(-108.18 119.6) rotate(-35.27)"/>
    <path class="st0" d="M331.9,189.16c-34.98,13.17-70.44,21.34-108,26.24-.55-20.41-2.99-39.81,9.75-57.09,15.17-19.6,31.37-16.78,54.03-16.56,16.53.16,31.28,9.93,38.64,24.51,3.65,7.23,5.09,14.77,5.57,22.89ZM216.14,216.39c-.66-26.32-3.73-47.7,15.67-67.75l-34.21.03c-11.1,0-21.1,4.25-29.06,12-8.85,9.18-12.82,21.33-12.53,34.13.18,7.79-.19,15.16,1.02,22.63l38.22-.06,20.87-.98ZM277.74,66.53c-18.38,0-33.28,14.9-33.28,33.27s14.9,33.27,33.28,33.27,33.28-14.9,33.28-33.27-14.9-33.27-33.28-33.27ZM208.46,89.14c-14.54,0-26.32,11.78-26.32,26.31s11.79,26.31,26.32,26.31,26.32-11.78,26.32-26.31-11.79-26.31-26.32-26.31ZM347.44,89.38c-14.4,0-26.07,11.67-26.07,26.06s11.67,26.06,26.07,26.06,26.07-11.67,26.07-26.06-11.67-26.06-26.07-26.06ZM356.36,149.14l-32.04.06c9.41,9.03,14.07,24.47,15.78,37.1,16.83-6.33,32.63-14.82,48.09-24.22-8.86-8.97-20.04-12.96-31.83-12.94ZM398.73,183.71c-21.12,12.46-42.43,22.11-64.63,31.1l-17.5,7.08c30.44-3.99,58.35-11.27,85-25.75-.51-4.58-1.12-8.4-2.87-12.43Z"/>
    <path class="st0" d="M84.74,258.36c-10.57-6.5-13.99-14.73-12.7-27.71,3.65,1.41,7.27,3.16,11.75,4.22,1.65,7.16,5.82,12.74,12.37,16.16,7.57,3.95,15.45,6.32,23.88,7.97,22.41,4.4,51.29,3.79,74.38,1.9,72.79-5.97,156.87-27.21,221.08-62.43l6.4,10.78c-14.72,8.56-30.03,14.63-45.94,20.65-24.41,9.23-48.77,16.78-74.22,22.91-56.56,13.63-137.85,27.85-194.34,14.51-8.16-1.93-15.65-4.66-22.66-8.97ZM466.41,181.19c16.99-10.59,38.72-30.99,42.21-50.96,2.22-12.67-3.63-24.37-14.87-30.71l-5.34,7.69c10.46,12.12,5.85,27.84-2.81,39.25-7.38,9.72-16.36,17.49-26.06,24.91,3.09,2.89,5.1,6.13,6.87,9.82ZM474.71,94.81c-10.72-3.3-22.13-4.33-34.07-4.37-20.83-.07-45.9,1.1-65.86,6.51,3.91.22,7.41-.08,11.29-.44,29.34-2.74,55.63-3.85,84.74,2.93,1.65-1.86,1.77-3.5,3.9-4.63ZM148.32,147.43l23.06-15.26c-2.4.73-3.2.97-4.5,1.64-9.38,4.87-17.87,10.23-26.8,16-21.91,14.14-45.41,34.86-57.48,58.67l8.38,4.31c9.8-23.54,36.21-51.37,57.34-65.35Z"/>
    <path class="st0" d="M158.94,226.86c15.34.07,30.03,0,45.31-1.03,37.56-2.52,74.39-10.35,110.38-22.05,43.23-14.05,83.84-35.13,119.21-63.56,14.2-11.42,27.03-23.59,38.17-37.78,6.06-7.73,10.83-15.7,14.27-24.81,4.81-12.71,3.52-27.43-9.64-34.29-8.72-4.55-18.34-6.43-28.2-6.8l-17.69-.68c-1.3-.32-1.36-3.6-1.23-4.94,20.88-.44,55.52-1.41,68.24,18.57,18.38,28.88-28.96,75.62-49.65,92.59-35.57,29.17-75.61,51.82-118.84,67.52-31.97,11.61-70.91,22.23-104.51,27.08-23.17,3.34-45.8,5.46-69.31,4.64,1.61-4.88,2.95-9.43,3.48-14.48ZM69.53,184.23c16.95-45.77,98.9-94.51,142.61-112.94l45.18-19.05c2.82-1.34,6.14-1.23,8.27-3.47-35.31,10.69-68.87,24.51-101.53,41.36-34.67,17.89-80.04,47.53-101.89,80.01-11.37,16.91-14.18,36.75,3.73,50.11,13.68,10.21,30.62,13.85,47.12,17.91-1.39-5.12-1.38-9.65-.17-14.7-18.87-3.2-52.73-13.78-43.31-39.24ZM373.53,38.45c3-3.62-8.85-1-10.21-.93-20.54,2.63-40.85,6.37-60.22,13.31,23.72-4.87,46.76-9.35,70.43-12.38Z"/>
  </g>
  <g>
    <path class="st0" d="M65.63,365.32h-3.73l-1.57-8.41c-.24-1.15-.41-2.51-.52-4.07l-.09.81-.45,3.31-1.53,8.37h-3.73l-2.91-16.06h2.93l1.44,9.06c.14.91.33,2.33.56,4.27.18-1.96.36-3.36.52-4.21l1.71-9.13h3.1l1.71,9.13c.23,1.35.41,2.76.54,4.23.26-2.17.44-3.6.56-4.29l1.39-9.06h2.95l-2.89,16.06Z"/>
    <path class="st0" d="M77,365.32v-7.29c0-1.79-.45-2.69-1.35-2.69-.67,0-1.15.35-1.42,1.06-.27.71-.41,1.72-.41,3.05v5.88h-2.92v-17.09h2.92v3.8c0,.49-.04,1.37-.13,2.62h.15c.59-1.2,1.49-1.8,2.7-1.8,1.12,0,1.97.38,2.54,1.14s.86,1.87.86,3.34v7.98h-2.94Z"/>
    <path class="st0" d="M87.76,365.54c-1.53,0-2.74-.54-3.62-1.63-.88-1.09-1.32-2.63-1.32-4.62s.4-3.6,1.2-4.73c.8-1.13,1.91-1.7,3.34-1.7,1.33,0,2.38.49,3.15,1.46.77.97,1.15,2.33,1.15,4.08v1.56h-5.88c.02,1.09.25,1.9.67,2.43.42.53,1.01.8,1.76.8.95,0,1.93-.3,2.92-.89v2.41c-.94.56-2.06.85-3.37.85ZM87.33,355.1c-.42,0-.76.22-1.03.66-.27.44-.43,1.13-.47,2.06h2.96c-.01-.89-.15-1.57-.41-2.03-.26-.46-.61-.69-1.05-.69Z"/>
    <path class="st0" d="M99.75,352.85c.36,0,.71.06,1.05.17l-.34,2.83c-.21-.07-.47-.11-.8-.11-.71,0-1.26.28-1.64.84-.38.56-.57,1.37-.57,2.44v6.29h-2.92v-12.23h2.41l.33,1.91h.1c.32-.77.67-1.32,1.05-1.65.38-.33.82-.49,1.33-.49Z"/>
    <path class="st0" d="M107.57,365.54c-1.53,0-2.74-.54-3.62-1.63-.88-1.09-1.32-2.63-1.32-4.62s.4-3.6,1.2-4.73c.8-1.13,1.91-1.7,3.34-1.7,1.33,0,2.38.49,3.15,1.46.77.97,1.15,2.33,1.15,4.08v1.56h-5.88c.02,1.09.25,1.9.67,2.43.42.53,1.01.8,1.76.8.95,0,1.93-.3,2.92-.89v2.41c-.94.56-2.06.85-3.37.85ZM107.14,355.1c-.42,0-.76.22-1.03.66-.27.44-.43,1.13-.47,2.06h2.96c-.01-.89-.15-1.57-.41-2.03-.26-.46-.61-.69-1.05-.69Z"/>
    <path class="st0" d="M129.78,354.2c0,1.71-.43,3.01-1.29,3.93-.86.91-2.1,1.37-3.73,1.37h-.75v5.82h-2.99v-16.06h4.07c3.12,0,4.68,1.65,4.68,4.94ZM124.01,356.9h.57c.73,0,1.28-.2,1.64-.6.36-.4.54-1.06.54-1.98,0-.84-.16-1.47-.49-1.87s-.84-.61-1.53-.61h-.72v5.06Z"/>
    <path class="st0" d="M137.08,365.54c-1.53,0-2.74-.54-3.62-1.63-.88-1.09-1.32-2.63-1.32-4.62s.4-3.6,1.2-4.73c.8-1.13,1.91-1.7,3.34-1.7,1.33,0,2.38.49,3.15,1.46.77.97,1.15,2.33,1.15,4.08v1.56h-5.88c.02,1.09.25,1.9.67,2.43.42.53,1.01.8,1.76.8.95,0,1.93-.3,2.92-.89v2.41c-.94.56-2.06.85-3.37.85ZM136.65,355.1c-.42,0-.76.22-1.03.66-.27.44-.43,1.13-.47,2.06h2.96c-.01-.89-.15-1.57-.41-2.03-.26-.46-.61-.69-1.05-.69Z"/>
    <path class="st0" d="M152.92,359.18c0,2.01-.42,3.57-1.27,4.68-.85,1.12-2.01,1.68-3.49,1.68-.94,0-1.76-.26-2.48-.77s-1.27-1.25-1.66-2.21c-.39-.96-.58-2.09-.58-3.38,0-1.98.42-3.53,1.26-4.65s2.01-1.68,3.5-1.68,2.59.57,3.44,1.71c.85,1.14,1.28,2.68,1.28,4.62ZM146.42,359.18c0,1.27.14,2.24.42,2.89.28.65.72.98,1.34.98,1.17,0,1.76-1.29,1.76-3.87,0-1.28-.14-2.24-.42-2.87s-.73-.95-1.33-.95-1.06.32-1.34.95c-.28.63-.42,1.59-.42,2.87Z"/>
    <path class="st0" d="M161.37,365.54c-.53,0-.99-.12-1.4-.36-.41-.24-.79-.66-1.14-1.26h-.15c.12,1,.18,1.6.18,1.8v5h-2.94v-17.64h2.26l.51,1.59h.13c.61-1.22,1.49-1.82,2.65-1.82s1.98.55,2.61,1.65c.63,1.1.94,2.66.94,4.67s-.33,3.54-.98,4.67-1.54,1.69-2.67,1.69ZM160.47,355.33c-.57,0-.98.27-1.24.8-.25.53-.39,1.41-.4,2.64v.38c0,1.35.13,2.33.38,2.94.26.61.68.92,1.27.92,1.02,0,1.54-1.3,1.54-3.89,0-1.27-.13-2.23-.38-2.86s-.65-.94-1.18-.94Z"/>
    <path class="st0" d="M170.94,365.32h-2.92v-17.09h2.92v17.09Z"/>
    <path class="st0" d="M178.85,365.54c-1.53,0-2.74-.54-3.62-1.63-.88-1.09-1.32-2.63-1.32-4.62s.4-3.6,1.2-4.73c.8-1.13,1.91-1.7,3.34-1.7,1.33,0,2.38.49,3.15,1.46.77.97,1.15,2.33,1.15,4.08v1.56h-5.88c.02,1.09.25,1.9.67,2.43.42.53,1.01.8,1.76.8.95,0,1.93-.3,2.92-.89v2.41c-.94.56-2.06.85-3.37.85ZM178.42,355.1c-.42,0-.76.22-1.03.66-.27.44-.43,1.13-.47,2.06h2.96c-.01-.89-.15-1.57-.41-2.03-.26-.46-.61-.69-1.05-.69Z"/>
    <path class="st0" d="M189.1,362.95c-.38,1.48-1.02,3.23-1.93,5.26h-2.23c.48-1.95.85-3.79,1.11-5.51h2.9l.15.25Z"/>
    <path class="st0" d="M199.32,349.26h4.1c1.67,0,2.88.32,3.65.97.76.65,1.14,1.68,1.14,3.09,0,.93-.2,1.71-.6,2.33s-.95,1-1.65,1.14v.11c.91.23,1.56.65,1.97,1.27.4.62.6,1.45.6,2.48,0,1.46-.39,2.6-1.17,3.42-.78.82-1.85,1.24-3.2,1.24h-4.83v-16.06ZM202.13,355.72h1.37c.63,0,1.07-.17,1.33-.51s.38-.84.38-1.5-.15-1.14-.44-1.43-.75-.43-1.38-.43h-1.26v3.88ZM202.13,358.21v4.49h1.5c.62,0,1.09-.19,1.39-.57.3-.38.46-.97.46-1.77,0-1.44-.63-2.15-1.89-2.15h-1.46Z"/>
    <path class="st0" d="M216,365.54c-1.53,0-2.74-.54-3.62-1.63-.88-1.09-1.32-2.63-1.32-4.62s.4-3.6,1.2-4.73c.8-1.13,1.91-1.7,3.34-1.7,1.33,0,2.38.49,3.15,1.46.77.97,1.15,2.33,1.15,4.08v1.56h-5.88c.02,1.09.25,1.9.67,2.43.42.53,1.01.8,1.76.8.95,0,1.93-.3,2.92-.89v2.41c-.94.56-2.06.85-3.37.85ZM215.57,355.1c-.42,0-.76.22-1.03.66-.27.44-.43,1.13-.47,2.06h2.96c-.01-.89-.15-1.57-.41-2.03-.26-.46-.61-.69-1.05-.69Z"/>
    <path class="st0" d="M228.87,365.32v-7.29c0-.89-.11-1.56-.32-2.01-.21-.45-.56-.68-1.03-.68-.63,0-1.09.31-1.38.94s-.44,1.68-.44,3.17v5.88h-2.92v-12.23h2.32l.35,1.57h.19c.26-.56.64-1,1.13-1.32.49-.32,1.07-.48,1.72-.48,1.11,0,1.95.38,2.5,1.14.55.76.83,1.87.83,3.34v7.98h-2.94Z"/>
    <path class="st0" d="M239.63,365.54c-1.53,0-2.74-.54-3.62-1.63-.88-1.09-1.32-2.63-1.32-4.62s.4-3.6,1.2-4.73c.8-1.13,1.91-1.7,3.34-1.7,1.33,0,2.38.49,3.15,1.46.77.97,1.15,2.33,1.15,4.08v1.56h-5.88c.02,1.09.25,1.9.67,2.43.42.53,1.01.8,1.76.8.95,0,1.93-.3,2.92-.89v2.41c-.94.56-2.06.85-3.37.85ZM239.2,355.1c-.42,0-.76.22-1.03.66-.27.44-.43,1.13-.47,2.06h2.96c-.01-.89-.15-1.57-.41-2.03-.26-.46-.61-.69-1.05-.69Z"/>
    <path class="st0" d="M251.84,355.4h-2.02v9.92h-2.92v-9.92h-1.42v-1.46l1.42-.88v-.92c0-1.36.28-2.37.85-3.04s1.47-.99,2.72-.99c.79,0,1.53.17,2.21.49l-.77,2.23c-.37-.18-.74-.26-1.12-.26-.34,0-.58.13-.74.4-.15.26-.23.67-.23,1.22v.9h2.02v2.32ZM253.03,349.89c0-.48.14-.87.42-1.15.28-.28.68-.42,1.18-.42.48,0,.86.14,1.14.42.29.28.43.66.43,1.15s-.15.88-.44,1.16-.67.41-1.13.41-.87-.14-1.16-.41-.44-.66-.44-1.16ZM256.07,365.32h-2.92v-12.23h2.92v12.23Z"/>
    <path class="st0" d="M263.77,363.06c.41,0,.85-.1,1.33-.31v2.28c-.48.33-1.19.49-2.14.49-1.06,0-1.85-.32-2.36-.95-.51-.63-.77-1.58-.77-2.85v-6.34h-1.19v-1.31l1.53-1.05.75-2.59h1.87v2.64h2.22v2.32h-2.22v6.44c0,.82.33,1.23.99,1.23Z"/>
    <path class="st0" d="M274.33,361.74c0,1.19-.35,2.12-1.05,2.8-.7.67-1.73,1-3.09,1-1.21,0-2.21-.24-3-.71v-2.54c.4.28.87.51,1.41.69.54.18,1.01.27,1.42.27.45,0,.8-.11,1.04-.33.24-.22.36-.52.36-.88s-.12-.7-.37-.98c-.25-.28-.71-.62-1.37-1.02-.89-.53-1.52-1.09-1.91-1.69s-.58-1.3-.58-2.11c0-1.04.36-1.86,1.07-2.47.71-.61,1.69-.91,2.94-.91,1.08,0,2.1.29,3.06.86l-.96,2.1c-.78-.42-1.47-.64-2.06-.64-.37,0-.65.1-.84.3-.19.2-.28.44-.28.72,0,.33.12.62.35.88s.66.57,1.29.96c.76.46,1.3.85,1.6,1.18s.55.69.71,1.1c.17.41.25.89.25,1.44Z"/>
    <path class="st0" d="M280.6,362.95c-.38,1.48-1.03,3.23-1.93,5.26h-2.23c.48-1.95.85-3.79,1.11-5.51h2.9l.15.25Z"/>
    <path class="st0" d="M296.63,365.32l-.58-1.67h-.07c-.43.72-.88,1.21-1.34,1.48-.46.27-1.04.41-1.75.41-.9,0-1.61-.34-2.12-1.01s-.77-1.61-.77-2.81c0-1.29.35-2.25,1.06-2.87.71-.63,1.76-.97,3.17-1.04l1.63-.07v-.88c0-1.14-.49-1.71-1.48-1.71-.73,0-1.57.29-2.53.86l-1.01-2.02c1.22-.77,2.54-1.15,3.96-1.15,1.3,0,2.28.37,2.96,1.11s1.02,1.8,1.02,3.16v8.21h-2.14ZM294.09,363.25c.53,0,.96-.24,1.28-.72s.48-1.12.48-1.92v-1.03l-.9.04c-.67.04-1.15.23-1.47.57s-.47.86-.47,1.54c0,1.01.36,1.52,1.08,1.52Z"/>
    <path class="st0" d="M308.17,365.32v-7.29c0-.89-.11-1.56-.32-2.01-.21-.45-.56-.68-1.03-.68-.63,0-1.09.31-1.38.94s-.44,1.68-.44,3.17v5.88h-2.92v-12.23h2.32l.35,1.57h.19c.26-.56.64-1,1.13-1.32.49-.32,1.07-.48,1.72-.48,1.11,0,1.95.38,2.5,1.14.55.76.83,1.87.83,3.34v7.98h-2.94Z"/>
    <path class="st0" d="M317.64,365.54c-1.13,0-2.02-.56-2.67-1.67-.65-1.11-.98-2.66-.98-4.65s.32-3.55.96-4.68c.64-1.13,1.52-1.69,2.64-1.69.56,0,1.04.14,1.44.41s.78.74,1.13,1.39h.18c-.09-1.11-.13-1.89-.13-2.34v-4.09h2.92v17.09h-2.17l-.49-1.59h-.1c-.62,1.21-1.53,1.81-2.71,1.81ZM318.58,363.06c.54,0,.94-.25,1.19-.74.25-.49.38-1.39.41-2.7v-.38c0-1.42-.13-2.42-.38-3-.25-.58-.67-.87-1.25-.87-.54,0-.94.33-1.18.99s-.37,1.63-.37,2.89.12,2.22.37,2.85c.25.63.65.95,1.21.95Z"/>
    <path class="st0" d="M338.53,351.64c-.86,0-1.53.5-2.03,1.5-.49,1-.74,2.4-.74,4.18,0,3.72.97,5.58,2.91,5.58.85,0,1.74-.27,2.67-.81v2.66c-.78.52-1.79.78-3.01.78-1.81,0-3.2-.72-4.17-2.16-.97-1.44-1.46-3.46-1.46-6.07s.5-4.64,1.5-6.1,2.39-2.19,4.17-2.19c.59,0,1.15.08,1.69.24.54.16,1.11.44,1.73.85l-.99,2.43c-.33-.23-.68-.43-1.05-.62-.37-.19-.78-.28-1.22-.28Z"/>
    <path class="st0" d="M353.44,359.18c0,2.01-.42,3.57-1.27,4.68-.85,1.12-2.01,1.68-3.49,1.68-.94,0-1.76-.26-2.48-.77-.72-.51-1.27-1.25-1.66-2.21-.39-.96-.58-2.09-.58-3.38,0-1.98.42-3.53,1.26-4.65.84-1.12,2.01-1.68,3.5-1.68s2.59.57,3.44,1.71c.85,1.14,1.28,2.68,1.28,4.62ZM346.94,359.18c0,1.27.14,2.24.42,2.89.28.65.72.98,1.34.98,1.17,0,1.76-1.29,1.76-3.87,0-1.28-.14-2.24-.42-2.87-.28-.63-.73-.95-1.33-.95s-1.06.32-1.34.95c-.28.63-.42,1.59-.42,2.87Z"/>
    <path class="st0" d="M368.59,365.32v-7.29c0-1.79-.44-2.69-1.33-2.69-.64,0-1.11.32-1.38.96-.28.64-.42,1.67-.42,3.08v5.94h-2.94v-7.29c0-1.79-.45-2.69-1.35-2.69-.63,0-1.09.32-1.37.96-.29.64-.43,1.69-.43,3.15v5.88h-2.92v-12.23h2.32l.35,1.57h.19c.29-.62.69-1.08,1.2-1.37.51-.29,1.05-.43,1.63-.43,1.49,0,2.49.71,2.99,2.12h.11c.62-1.41,1.62-2.12,3-2.12,1.08,0,1.91.38,2.47,1.14.56.76.84,1.87.84,3.34v7.98h-2.94Z"/>
    <path class="st0" d="M380.29,365.54c-.53,0-.99-.12-1.4-.36s-.79-.66-1.14-1.26h-.15c.12,1,.18,1.6.18,1.8v5h-2.94v-17.64h2.26l.51,1.59h.13c.61-1.22,1.49-1.82,2.65-1.82s1.98.55,2.61,1.65c.63,1.1.94,2.66.94,4.67s-.33,3.54-.98,4.67c-.65,1.13-1.54,1.69-2.67,1.69ZM379.39,355.33c-.57,0-.98.27-1.24.8-.25.53-.39,1.41-.4,2.64v.38c0,1.35.13,2.33.38,2.94.26.61.68.92,1.27.92,1.02,0,1.54-1.3,1.54-3.89,0-1.27-.13-2.23-.38-2.86s-.65-.94-1.18-.94Z"/>
    <path class="st0" d="M389.86,365.32h-2.92v-17.09h2.92v17.09Z"/>
    <path class="st0" d="M393.15,349.89c0-.48.14-.87.42-1.15.28-.28.68-.42,1.18-.42.48,0,.86.14,1.14.42.29.28.43.66.43,1.15s-.15.88-.44,1.16-.67.41-1.13.41-.87-.14-1.16-.41-.44-.66-.44-1.16ZM396.19,365.32h-2.92v-12.23h2.92v12.23Z"/>
    <path class="st0" d="M405.64,365.32l-.58-1.67h-.07c-.43.72-.88,1.21-1.34,1.48-.46.27-1.04.41-1.75.41-.9,0-1.61-.34-2.12-1.01s-.77-1.61-.77-2.81c0-1.29.35-2.25,1.06-2.87.71-.63,1.76-.97,3.17-1.04l1.63-.07v-.88c0-1.14-.49-1.71-1.48-1.71-.73,0-1.57.29-2.53.86l-1.01-2.02c1.22-.77,2.54-1.15,3.96-1.15,1.3,0,2.28.37,2.96,1.11s1.02,1.8,1.02,3.16v8.21h-2.14ZM403.1,363.25c.53,0,.96-.24,1.28-.72s.48-1.12.48-1.92v-1.03l-.9.04c-.67.04-1.15.23-1.47.57s-.47.86-.47,1.54c0,1.01.36,1.52,1.08,1.52Z"/>
    <path class="st0" d="M417.18,365.32v-7.29c0-.89-.11-1.56-.32-2.01-.21-.45-.56-.68-1.03-.68-.63,0-1.09.31-1.38.94s-.44,1.68-.44,3.17v5.88h-2.92v-12.23h2.32l.35,1.57h.19c.26-.56.64-1,1.13-1.32.49-.32,1.07-.48,1.72-.48,1.11,0,1.95.38,2.5,1.14.55.76.83,1.87.83,3.34v7.98h-2.94Z"/>
    <path class="st0" d="M427.47,365.54c-1.46,0-2.57-.53-3.33-1.59s-1.14-2.62-1.14-4.68.36-3.76,1.08-4.82c.72-1.06,1.84-1.59,3.34-1.59.45,0,.93.07,1.43.2s.94.32,1.34.57l-.83,2.27c-.61-.36-1.15-.54-1.61-.54-.62,0-1.07.32-1.34.97-.27.65-.41,1.62-.41,2.92s.14,2.21.41,2.84c.27.63.71.94,1.33.94.73,0,1.5-.26,2.3-.77v2.57c-.77.48-1.62.71-2.55.71Z"/>
    <path class="st0" d="M437.23,365.54c-1.53,0-2.74-.54-3.62-1.63-.88-1.09-1.32-2.63-1.32-4.62s.4-3.6,1.2-4.73c.8-1.13,1.91-1.7,3.34-1.7,1.33,0,2.38.49,3.15,1.46.77.97,1.15,2.33,1.15,4.08v1.56h-5.88c.02,1.09.25,1.9.67,2.43.42.53,1.01.8,1.76.8.95,0,1.93-.3,2.92-.89v2.41c-.94.56-2.06.85-3.37.85ZM436.81,355.1c-.42,0-.76.22-1.03.66-.27.44-.43,1.13-.47,2.06h2.97c-.01-.89-.15-1.57-.41-2.03-.26-.46-.61-.69-1.05-.69Z"/>
    <path class="st0" d="M458.29,365.32l-.92-4.05h-4.18l-.92,4.05h-2.99l3.98-16.12h4.05l3.99,16.12h-3ZM456.8,358.62l-.86-3.73c-.05-.23-.17-.8-.35-1.71-.18-.91-.29-1.52-.32-1.83-.1.63-.22,1.32-.36,2.08s-.53,2.49-1.14,5.19h3.03Z"/>
    <path class="st0" d="M466.39,365.32h-2.92v-17.09h2.92v17.09Z"/>
    <path class="st0" d="M469.69,349.89c0-.48.14-.87.42-1.15.28-.28.68-.42,1.18-.42.48,0,.86.14,1.14.42.29.28.43.66.43,1.15s-.15.88-.44,1.16-.67.41-1.13.41-.87-.14-1.16-.41-.44-.66-.44-1.16ZM472.73,365.32h-2.92v-12.23h2.92v12.23Z"/>
    <path class="st0" d="M484.99,353.1v1.71l-1.46.33c.29.51.43,1.16.43,1.93,0,1.3-.35,2.31-1.05,3.04-.7.73-1.68,1.1-2.94,1.1-.37,0-.64-.03-.81-.09-.14.12-.27.26-.4.42-.12.15-.19.34-.19.57,0,.51.44.77,1.33.77h1.77c1.04,0,1.84.28,2.4.84.56.56.84,1.4.84,2.53,0,1.42-.48,2.52-1.43,3.29s-2.32,1.16-4.11,1.16c-1.35,0-2.4-.29-3.13-.88-.73-.59-1.1-1.43-1.1-2.52,0-.68.21-1.28.63-1.8s1-.89,1.74-1.13c-.37-.15-.68-.37-.92-.68s-.36-.67-.36-1.08c0-.25.04-.47.11-.68.07-.2.18-.39.31-.57.14-.18.41-.44.83-.8-.51-.31-.9-.78-1.2-1.42-.29-.64-.44-1.34-.44-2.12,0-1.34.35-2.38,1.05-3.11.7-.73,1.71-1.1,3.02-1.1.25,0,.53.03.86.08s.57.11.74.17h3.48ZM477.79,367.09c0,.48.15.86.46,1.11.3.26.74.39,1.3.39.89,0,1.55-.17,1.99-.51.44-.34.66-.8.66-1.38,0-.46-.12-.79-.36-.98-.24-.19-.68-.29-1.33-.29h-1.42c-.4,0-.71.15-.95.44-.24.3-.36.7-.36,1.2ZM478.69,357.08c0,1.44.41,2.16,1.22,2.16s1.19-.73,1.19-2.19-.4-2.24-1.19-2.24-1.22.75-1.22,2.26Z"/>
    <path class="st0" d="M493.5,365.32v-7.29c0-.89-.11-1.56-.32-2.01-.21-.45-.56-.68-1.03-.68-.63,0-1.09.31-1.38.94s-.44,1.68-.44,3.17v5.88h-2.92v-12.23h2.32l.35,1.57h.19c.26-.56.64-1,1.13-1.32.49-.32,1.07-.48,1.72-.48,1.11,0,1.95.38,2.5,1.14.55.76.83,1.87.83,3.34v7.98h-2.94Z"/>
  </g>
  <g>
    <g>
      <path class="st0" d="M289.63,310.97c0,10.01-8.12,18.12-18.13,18.12s-18.13-8.11-18.13-18.12,8.12-18.12,18.13-18.12,18.13,8.11,18.13,18.12ZM272.65,322.71c3.88-.46,6.55-2.81,7.66-6.38,2.01-6.47.22-16.07-7.77-16.92-3.62-.38-7.44.97-9.14,4.49-1.93,3.99-2.02,8.88-.51,12.96,1.53,4.14,5.35,6.37,9.77,5.85ZM341.77,321.16l-13.8.06-2.67,6.9-8.17.3,13.74-34.94c2.89-.05,5.5-.2,8.4.08l13.42,34.55c-2.51.26-5.32.07-8.28.06l-2.65-7.02ZM339.61,314.56l-4.55-12.85-4.73,12.99c3.27.09,6.01.32,9.28-.14ZM252.69,318.35c0-4.45-2.62-8.11-7.06-9.44l-10.63-3.19c-1.58-.48-2.66-1.64-2.51-3.15.54-5.58,12.01-2.87,15.96-.11l3.07-5.72c-5.45-4.39-17.89-5.51-23.59-.43-2.67,2.38-3.86,5.66-3,9.42.64,2.79,2.96,5.57,6.34,6.54l11.04,3.16c1.82.52,2.95,1.93,2.82,3.64-.11,1.48-1.16,2.75-2.86,3.19-5.37,1.37-10.82-.07-15.03-3.6-1.18,1.72-2.38,3.25-3.34,5.17,4.69,5.39,14.99,5.88,21.4,3.97,4.77-1.42,7.39-5.08,7.39-9.43ZM300.55,321.92l-.06-28.35-8.5-.07v34.72s23.22-.04,23.22-.04l1.81-6.08-16.46-.18Z"/>
      <g>
        <path class="st0" d="M51.31,313.31l-17.11.17v8.45s19.16.01,19.16.01l-.04,6.27-27.09-.03v-34.68s26.62-.03,26.62-.03l.08,6.33-18.73.03c-.16,2.61-.14,4.98,0,7.59l17,.08.13,5.81Z"/>
        <path class="st0" d="M189.38,324.72c-3.2,3.37-7.39,4.12-11.67,4.11-7.95-.02-13.93-6.16-13.62-14.02s6.31-13.2,14.09-13.04c4.24.09,8.39,1.2,11.34,4.46,4.65,5.15,4.77,13.32-.14,18.49ZM183.9,319.73c1.6-3.07,1.26-6.73-.66-9.32s-6.19-3-8.71-.61c-3.2,3.03-3.16,8.65.16,11.67,2.7,2.46,7.49,1.57,9.22-1.75Z"/>
        <path class="st0" d="M212.65,309.97c-1.55-1.75-3.95-1.84-5.96-1.03-1.58.63-3.1,2.4-3.11,4.59l-.11,14.64-7.92.03v-26.12c2.78.73,5.25.07,7.79.28.24,1.06-.13,1.98.35,3.08,3.89-4.3,10.81-5.2,15.34-1.28,2.22,1.92,2.9,5.06,2.93,7.89l.16,16.26c-2.94-.16-5.55-.31-8.33.23l.02-14.37c0-1.39-.11-3.01-1.17-4.21Z"/>
        <path class="st0" d="M72.7,309.4c-1.85-1.39-4.06-1.09-5.72-.07-1.54.95-2.56,2.74-2.56,4.87v13.97s-8.12.02-8.12.02l-.06-25.74c2.89-.02,5.5-.27,8.16.12.03.87-.29,1.64.6,2.58,3.69-3.93,9.91-4.74,14.2-1.19,2.2,1.82,3.19,4.88,3.21,7.7l.11,16.53h-8s-.13-14.91-.13-14.91c-.01-1.33-.49-2.97-1.68-3.86Z"/>
        <path class="st0" d="M146.78,326.39c-5.39,3.86-18.11,3.3-22.82-2.06.89-1.78,1.89-3.41,3.33-4.76,3.7,2.91,8.35,4.54,12.99,3.1.79-.24,1.53-.87,1.61-1.5.09-.7-.59-1.44-1.38-1.65l-9.67-2.55c-2.8-.74-4.77-2.91-5.22-5.42-.51-2.81.43-5.51,2.75-7.28,4.87-3.71,15.42-3.26,20,1.31-.77,1.66-1.82,3.13-2.98,4.68-2.57-2.29-11.13-4.23-11.95-.93-.26,1.07.54,1.79,1.59,2.03l9.17,2.11c2.9.67,5.06,2.85,5.54,5.53s-.57,5.68-2.96,7.39Z"/>
        <path class="st0" d="M112.15,302.45c-.69.74-.98,1.53-1.37,2.52l-8.94,23.13-8.75.29-9.91-25.85,8.23-.16,6.12,17.26,6.12-17.19h8.5Z"/>
        <rect class="st0" x="104.73" y="311.14" width="26.06" height="8.42" transform="translate(-198.5 430.65) rotate(-89.55)"/>
        <rect class="st0" x="152.75" y="302.36" width="8.25" height="26.04"/>
        <path class="st0" d="M121.94,299.03c-2.86.33-5.47.1-8.35.06-.12-2.37-.24-4.62.06-6.96l8.37-.03-.07,6.93Z"/>
        <polygon class="st0" points="161.22 299.05 152.84 299.23 152.73 292.09 161.15 292.02 161.22 299.05"/>
      </g>
    </g>
    <g>
      <path class="st0" d="M499.57,310.84c-.04-3.53-3.39-5.17-6.54-4.57-3.19.61-5.94,3.5-5.98,6.89l-.14,14.17c-1.39.14-2.62.14-4.07.04l-.12-24.06c1.3-.2,2.72-.53,3.8-.01s-.07,2.26.69,3.72c1.89-3.21,5.05-4.6,8.8-4.44,3.34.14,6.13,1.33,7.43,5.18,2.31-3.72,5.44-5.26,9.55-5.24,4.62.03,8.25,3.1,8.27,8.02l.07,16.83c-1.5.22-2.73.21-4.14,0l-.19-15.87c-.04-3.28-2.63-5.44-5.91-5.31-3.86.15-6.98,3.34-6.99,7.32l-.04,13.58c-1.38.49-2.75.47-4.31.06l-.18-16.32Z"/>
      <path class="st0" d="M383.76,325.96c-7.39,3.56-16.49,2.03-22.61-3.15-.15-1.33,1.3-2.64,2.39-3.71,4.48,4.24,10.89,5.92,16.9,4,2.19-.7,3.36-2.65,3.48-4.46.57-8.76-19.81-4.2-21.23-14.6-.49-3.58.79-7.29,4.15-9.37,6.21-3.86,15.26-2.82,20.7,2.01-.48,1.87-1.57,2.88-2.24,4.04-3.7-4.36-9.97-5.22-15.05-3.28-2.07.79-2.94,3.08-2.87,4.87.07,1.92,1.71,3.58,3.76,4.15l10.26,2.84c3.81,1.05,6.61,3.58,7.02,7.09s-.84,7.74-4.67,9.58Z"/>
      <path class="st0" d="M462.56,322.88c3.96,2.5,8.51,1.64,12.08-1.22.79-.63,2.99,1.74,2.3,2.43-4.88,4.88-13.4,5.41-18.58.44-5.51-5.29-4.93-15.08,1.06-19.75,4.13-3.22,10.61-3.08,14.53-.05,3.47,2.68,4.01,7.09,3.91,11.16l-18.89.06c-.12,2.73,1.25,5.45,3.58,6.92ZM473.52,312.65c-.25-4.2-2.13-5.57-4.84-6.37-4.61-1.2-9.35,1.5-9.65,6.65l14.49-.28Z"/>
      <path class="st0" d="M401.87,331.4c-2,5.06-6.86,7.19-11.57,5.26.05-1.03-.09-2.02.35-3.3,1.59-.07,3.53.69,5.16-.54,1.3-.99,3.58-3.98,2.97-5.91-2.6-8.23-6.24-15.65-9.54-23.66,1.46-.15,3.99-.66,4.97.19l7.4,18.3,6.81-18.5,4.73-.43-11.28,28.59Z"/>
      <path class="st0" d="M431.94,325.93c-5.38,3.35-12.98,2.35-17.25-2.16-.58-.61,1.37-3.06,2.09-2.67,4.48,3.9,13.42,4.41,14.01-.13.16-1.21-.72-2.62-2.11-3.01l-8.48-2.39c-1.93-.54-3.38-1.75-3.92-2.97-.84-1.89-.65-4.06.16-5.76,2.72-5.69,13.78-5.55,17.96-.8-.78.6-1.59,1.42-2.43,2.27-3.84-3.2-11.66-3.09-12,.8-.09,1,.69,2.36,1.92,2.71l7.92,2.27c2.6.74,4.72,2.5,5.04,4.71.39,2.63-.22,5.47-2.9,7.14Z"/>
      <path class="st0" d="M448.57,324.15c1.73.14,3.1-.83,4.08-.46.66.27.46,2.33.15,3.04-.37.82-5.9,2.29-9.32-.12-4.63-3.26-1.71-14.48-3.03-19.65-.55-.63-3.06.03-3.44-.84-.34-.77-.51-2.6.59-2.94.98-.3,2.82.43,3.08-1.05.39-2.17-.3-4.1.3-6.61,1.29.48,2.63.76,4.18.62.43,2.42-.35,4.62.4,6.89,2.17.48,4.25-.35,6.02.25.77.3.78,2.68.19,3.19l-6.48.35.04,13.83c0,1.73,1.16,3.32,3.23,3.48Z"/>
    </g>
  </g>
</svg>